HIERARCHY
ROOT hip
{
  OFFSET 0.222312 82.0569 -0.0481474
  CHANNELS 6 Xposition Yposition Zposition Zrotation Xrotation Yrotation
  JOINT abdomen
  {
    OFFSET 0 7.2397 0
    CHANNELS 6 Xposition Yposition Zposition Zrotation Xrotation Yrotation
    JOINT chest
    {
      OFFSET 0 16.546 0
      CHANNELS 6 Xposition Yposition Zposition Zrotation Xrotation Yrotation
      JOINT neck
      {
        OFFSET 0 34.2149 0
        CHANNELS 6 Xposition Yposition Zposition Zrotation Xrotation Yrotation
        JOINT head
        {
          OFFSET 0 6.2923 0
          CHANNELS 6 Xposition Yposition Zposition Zrotation Xrotation Yrotation
          End Site
          {
            OFFSET 0 21.2161 0
          }
        }
      }
      JOINT lCollar
      {
        OFFSET 4.0639 26.6115 -1.1234
        CHANNELS 6 Xposition Yposition Zposition Zrotation Xrotation Yrotation
        JOINT lShldr
        {
          OFFSET 14.1772 0 0
          CHANNELS 6 Xposition Yposition Zposition Zrotation Xrotation Yrotation
          JOINT lForeArm
          {
            OFFSET 26.1234 0 0
            CHANNELS 6 Xposition Yposition Zposition Zrotation Xrotation Yrotation
            JOINT lHand
            {
              OFFSET 27.7188 0 0
              CHANNELS 6 Xposition Yposition Zposition Zrotation Xrotation Yrotation
              JOINT lThumb1
              {
                OFFSET 2.2979 -0.4685 1.8313
                CHANNELS 6 Xposition Yposition Zposition Zrotation Xrotation Yrotation
                JOINT lThumb2
                {
                  OFFSET 5.2953 0 0
                  CHANNELS 6 Xposition Yposition Zposition Zrotation Xrotation Yrotation
                  JOINT lThumb3
                  {
                    OFFSET 3.0181 0 0
                    CHANNELS 6 Xposition Yposition Zposition Zrotation Xrotation Yrotation
                    End Site
                    {
                      OFFSET 2.6294 0 0
                    }
                  }
                }
              }
              JOINT lIndex1
              {
                OFFSET 9.3793 0.2991 2.5924
                CHANNELS 6 Xposition Yposition Zposition Zrotation Xrotation Yrotation
                JOINT lIndex2
                {
                  OFFSET 4.3461 0 0
                  CHANNELS 6 Xposition Yposition Zposition Zrotation Xrotation Yrotation
                  JOINT lIndex3
                  {
                    OFFSET 2.1666 0 0
                    CHANNELS 6 Xposition Yposition Zposition Zrotation Xrotation Yrotation
                    End Site
                    {
                      OFFSET 2.2048 0 0
                    }
                  }
                }
              }
              JOINT lMid1
              {
                OFFSET 9.4769 0.8376 0.2947
                CHANNELS 6 Xposition Yposition Zposition Zrotation Xrotation Yrotation
                JOINT lMid2
                {
                  OFFSET 4.772 0 0
                  CHANNELS 6 Xposition Yposition Zposition Zrotation Xrotation Yrotation
                  JOINT lMid3
                  {
                    OFFSET 2.8722 0 0
                    CHANNELS 6 Xposition Yposition Zposition Zrotation Xrotation Yrotation
                    End Site
                    {
                      OFFSET 2.0959 0 0
                    }
                  }
                }
              }
              JOINT lRing1
              {
                OFFSET 8.6586 1.0176 -1.7016
                CHANNELS 6 Xposition Yposition Zposition Zrotation Xrotation Yrotation
                JOINT lRing2
                {
                  OFFSET 4.5461 0 0
                  CHANNELS 6 Xposition Yposition Zposition Zrotation Xrotation Yrotation
                  JOINT lRing3
                  {
                    OFFSET 2.506 0 0
                    CHANNELS 6 Xposition Yposition Zposition Zrotation Xrotation Yrotation
                    End Site
                    {
                      OFFSET 2.2023 0 0
                    }
                  }
                }
              }
              JOINT lPinky1
              {
                OFFSET 7.6901 0.6618 -3.9096
                CHANNELS 6 Xposition Yposition Zposition Zrotation Xrotation Yrotation
                JOINT lPinky2
                {
                  OFFSET 3.2119 0 0
                  CHANNELS 6 Xposition Yposition Zposition Zrotation Xrotation Yrotation
                  JOINT lPinky3
                  {
                    OFFSET 1.924 0 0
                    CHANNELS 6 Xposition Yposition Zposition Zrotation Xrotation Yrotation
                    End Site
                    {
                      OFFSET 1.7829 0 0
                    }
                  }
                }
              }
            }
          }
        }
      }
      JOINT rCollar
      {
        OFFSET -4.0677 26.6109 -1.1234
        CHANNELS 6 Xposition Yposition Zposition Zrotation Xrotation Yrotation
        JOINT rShldr
        {
          OFFSET -14.1772 0 0
          CHANNELS 6 Xposition Yposition Zposition Zrotation Xrotation Yrotation
          JOINT rForeArm
          {
            OFFSET -26.1234 0 0
            CHANNELS 6 Xposition Yposition Zposition Zrotation Xrotation Yrotation
            JOINT rHand
            {
              OFFSET -27.7188 0 0
              CHANNELS 6 Xposition Yposition Zposition Zrotation Xrotation Yrotation
              JOINT rThumb1
              {
                OFFSET -2.2979 -0.4684 1.8313
                CHANNELS 6 Xposition Yposition Zposition Zrotation Xrotation Yrotation
                JOINT rThumb2
                {
                  OFFSET -5.2953 0 0
                  CHANNELS 6 Xposition Yposition Zposition Zrotation Xrotation Yrotation
                  JOINT rThumb3
                  {
                    OFFSET -3.0181 0 0
                    CHANNELS 6 Xposition Yposition Zposition Zrotation Xrotation Yrotation
                    End Site
                    {
                      OFFSET -2.6294 0 0
                    }
                  }
                }
              }
              JOINT rIndex1
              {
                OFFSET -9.3793 0.2991 2.5924
                CHANNELS 6 Xposition Yposition Zposition Zrotation Xrotation Yrotation
                JOINT rIndex2
                {
                  OFFSET -4.3461 0 0
                  CHANNELS 6 Xposition Yposition Zposition Zrotation Xrotation Yrotation
                  JOINT rIndex3
                  {
                    OFFSET -2.1666 0 0
                    CHANNELS 6 Xposition Yposition Zposition Zrotation Xrotation Yrotation
                    End Site
                    {
                      OFFSET -2.2048 0 0
                    }
                  }
                }
              }
              JOINT rMid1
              {
                OFFSET -9.4769 0.8376 0.2947
                CHANNELS 6 Xposition Yposition Zposition Zrotation Xrotation Yrotation
                JOINT rMid2
                {
                  OFFSET -4.772 0 0
                  CHANNELS 6 Xposition Yposition Zposition Zrotation Xrotation Yrotation
                  JOINT rMid3
                  {
                    OFFSET -2.8722 0 0
                    CHANNELS 6 Xposition Yposition Zposition Zrotation Xrotation Yrotation
                    End Site
                    {
                      OFFSET -2.0959 0 0
                    }
                  }
                }
              }
              JOINT rRing1
              {
                OFFSET -8.6586 1.0176 -1.7016
                CHANNELS 6 Xposition Yposition Zposition Zrotation Xrotation Yrotation
                JOINT rRing2
                {
                  OFFSET -4.5461 0 0
                  CHANNELS 6 Xposition Yposition Zposition Zrotation Xrotation Yrotation
                  JOINT rRing3
                  {
                    OFFSET -2.506 0 0
                    CHANNELS 6 Xposition Yposition Zposition Zrotation Xrotation Yrotation
                    End Site
                    {
                      OFFSET -2.2023 0 0
                    }
                  }
                }
              }
              JOINT rPinky1
              {
                OFFSET -7.6901 0.6618 -3.9096
                CHANNELS 6 Xposition Yposition Zposition Zrotation Xrotation Yrotation
                JOINT rPinky2
                {
                  OFFSET -3.2119 0 0
                  CHANNELS 6 Xposition Yposition Zposition Zrotation Xrotation Yrotation
                  JOINT rPinky3
                  {
                    OFFSET -1.924 0 0
                    CHANNELS 6 Xposition Yposition Zposition Zrotation Xrotation Yrotation
                    End Site
                    {
                      OFFSET -1.7829 0 0
                    }
                  }
                }
              }
            }
          }
        }
      }
    }
  }
  JOINT lThigh
  {
    OFFSET 8.7379 -0.0029 0.0005
    CHANNELS 6 Xposition Yposition Zposition Zrotation Xrotation Yrotation
    JOINT lShin
    {
      OFFSET 0 -46.6676 0
      CHANNELS 6 Xposition Yposition Zposition Zrotation Xrotation Yrotation
      JOINT lFoot
      {
        OFFSET 0 -40.1476 0
        CHANNELS 6 Xposition Yposition Zposition Zrotation Xrotation Yrotation
        JOINT lToes
        {
          OFFSET 0 -8.8846 14.2294
          CHANNELS 6 Xposition Yposition Zposition Zrotation Xrotation Yrotation
          End Site
          {
            OFFSET 0 0 6.296
          }
        }
      }
    }
  }
  JOINT rThigh
  {
    OFFSET -8.7379 0.0029 -0.0005
    CHANNELS 6 Xposition Yposition Zposition Zrotation Xrotation Yrotation
    JOINT rShin
    {
      OFFSET 0 -46.6676 0
      CHANNELS 6 Xposition Yposition Zposition Zrotation Xrotation Yrotation
      JOINT rFoot
      {
        OFFSET 0 -40.1476 0
        CHANNELS 6 Xposition Yposition Zposition Zrotation Xrotation Yrotation
        JOINT rToes
        {
          OFFSET 0 -8.8846 14.2294
          CHANNELS 6 Xposition Yposition Zposition Zrotation Xrotation Yrotation
          End Site
          {
            OFFSET 0 0 6.296
          }
        }
      }
    }
  }
}
MOTION
Frames:	4
Frame Time:	0.0333333
4.76444 82.4427 -98.3312 4.68592 -1.02324 -38.5456 7.10543e-15 7.2397 1.42109e-14 3.10349 6.3098 1.44545 7.10543e-15 16.546 0 7.64538 14.518 1.7943 -7.10543e-15 34.2149 0 0.551621 27.0513 -0.165237 -3.55271e-15 6.2923 0 -19.2317 -27.8509 8.29204 4.0639 26.6115 -1.1234 -3.69549 -6.57191 -19.6416 14.1772 1.42109e-14 -1.42109e-14 -66.2826 -16.8177 -34.0846 26.1234 7.10543e-15 0 -116.29 -7.28457 -87.5349 27.7188 1.42109e-14 0 -1.1142 -34.5519 -4.32377 2.2979 -0.4685 1.8313 37.184 70.9488 -65.3921 5.2953 1.42109e-14 0 -13.655 2.43915 4.23129 3.0181 -1.42109e-14 7.10543e-15 40.5751 -4.26212 10.4488 9.3793 0.2991 2.5924 -15.7189 8.26171 2.10858 4.3461 0 0 -27.9756 -1.11864 5.59658 2.1666 7.10543e-15 -1.42109e-14 -30.2284 -1.57777 5.42756 9.4769 0.8376 0.2947 -15.5574 6.19106 1.80129 4.772 0 1.42109e-14 -44.2331 -4.15795 10.4286 2.8722 0 -1.42109e-14 -38.4625 -3.11872 10.6457 8.6586 1.0176 -1.7016 -12.8095 4.0576 0.0154257 4.5461 0 0 -68.2419 -4.98727 7.3547 2.506 7.10543e-15 1.42109e-14 -26.1841 0.226347 12.1003 7.6901 0.6618 -3.9096 -1.69592 -16.7036 -0.578577 3.2119 0 0 -48.2122 -6.75384 15.0248 1.924 8.88178e-16 0 -25.7168 -1.92456 10.2066 -4.0677 26.6109 -1.1234 -7.83127 -5.50874 -10.4055 -14.1772 0 0 32.8928 31.5485 50.3398 -26.1234 0 1.42109e-14 26.83 -0.86022 111.771 -27.7188 7.10543e-15 0 -4.29077 -10.7356 -6.98681 -2.2979 -0.4684 1.8313 -92.2024 72.3374 115.748 -5.2953 0 -7.10543e-15 20.8061 -0.164262 -7.80923 -3.0181 0 -3.55271e-15 7.4436 -1.87405 -23.1505 -9.3793 0.2991 2.5924 -0.483195 -1.40441 -4.462 -4.3461 -1.77636e-15 -2.84217e-14 11.3886 0.0663637 -2.10813 -2.1666 -3.55271e-15 -2.84217e-14 35.2115 -1.89998 -5.61246 -9.4769 0.8376 0.2947 -5.74449 -0.4925 -10.345 -4.772 -2.66454e-15 0 99.6664 -15.9161 -13.533 -2.8722 0 -1.42109e-14 64.9769 -7.76868 -13.6635 -8.6586 1.0176 -1.7016 4.03543 -11.2401 -9.54023 -4.5461 0 0 113.305 -9.33455 -6.15041 -2.506 7.10543e-15 0 71.4335 -4.52061 -7.1353 -7.6901 0.6618 -3.9096 -3.28615 -26.7809 -8.59916 -3.2119 0 1.42109e-14 88.1865 -18.3453 -18.9249 -1.924 -1.42109e-14 -1.42109e-14 68.3113 -11.8989 -18.9734 8.7379 -0.0029 0.0005 2.49395 -34.9895 20.3151 3.55271e-15 -46.6676 0 -6.5616 67.823 2.23348 0 -40.1476 0 10.1313 -27.9237 13.7334 3.55271e-15 -8.8846 14.2294 0.0001 7.95139e-16 -0 -8.7379 0.0029 -0.0005 -18.6613 -31.9013 -15.5101 -1.42109e-14 -46.6676 -7.10543e-15 -68.0646 72.5922 62.4283 0 -40.1476 0 -6.81837 -30.4153 -13.1733 0 -8.8846 14.2294 -3.18055e-15 6.36111e-15 3.18055e-15 
4.46438 81.4963 -104.363 4.57778 -0.812878 -40.7081 7.10543e-15 7.2397 0 3.36719 6.26388 1.91759 0 16.546 2.84217e-14 7.82577 14.432 2.4454 -7.10543e-15 34.2149 0 0.414642 27.1949 0.162265 1.06581e-14 6.2923 0 -19.9359 -27.8893 8.64251 4.0639 26.6115 -1.1234 -3.35839 -6.98055 -18.1075 14.1772 0 0 -67.7012 -15.8701 -33.6807 26.1234 7.10543e-15 7.10543e-15 -116.011 -7.89621 -87.7442 27.7188 -1.42109e-14 7.10543e-15 -1.96069 -34.5046 -4.05893 2.2979 -0.4685 1.8313 37.184 70.9488 -65.3921 5.2953 0 7.10543e-15 -13.655 2.43915 4.23129 3.0181 -1.42109e-14 -1.42109e-14 40.5751 -4.26212 10.4488 9.3793 0.2991 2.5924 -15.7189 8.26171 2.10858 4.3461 0 0 -27.9756 -1.11864 5.59658 2.1666 0 0 -30.2284 -1.57777 5.42756 9.4769 0.8376 0.2947 -15.5574 6.19106 1.80129 4.772 0 -1.42109e-14 -44.2331 -4.15795 10.4286 2.8722 -3.55271e-15 -1.42109e-14 -38.4625 -3.11872 10.6457 8.6586 1.0176 -1.7016 -12.8095 4.0576 0.0154257 4.5461 0 0 -68.2419 -4.98727 7.3547 2.506 0 0 -26.1841 0.226347 12.1003 7.6901 0.6618 -3.9096 -1.69592 -16.7036 -0.578577 3.2119 0 2.84217e-14 -48.2122 -6.75384 15.0248 1.924 -4.44089e-15 0 -25.7168 -1.92456 10.2066 -4.0677 26.6109 -1.1234 -7.73045 -5.75207 -9.79138 -14.1772 0 2.84217e-14 33.1906 32.7281 50.3701 -26.1234 0 -1.42109e-14 30.8815 -0.409424 111.702 -27.7188 3.55271e-15 0 -2.73711 -5.62147 -7.29879 -2.2979 -0.4684 1.8313 -92.2024 72.3374 115.748 -5.2953 0 1.42109e-14 20.8061 -0.164262 -7.80923 -3.0181 0 3.55271e-15 7.4436 -1.87405 -23.1505 -9.3793 0.2991 2.5924 -0.483195 -1.40441 -4.462 -4.3461 -3.55271e-15 0 11.3886 0.0663637 -2.10813 -2.1666 0 -2.84217e-14 35.2115 -1.89998 -5.61246 -9.4769 0.8376 0.2947 -5.74449 -0.4925 -10.345 -4.772 -8.88178e-16 1.42109e-14 99.6664 -15.9161 -13.533 -2.8722 1.42109e-14 0 64.9769 -7.76868 -13.6635 -8.6586 1.0176 -1.7016 4.03543 -11.2401 -9.54023 -4.5461 0 0 113.305 -9.33455 -6.15041 -2.506 0 1.42109e-14 71.4335 -4.52061 -7.1353 -7.6901 0.6618 -3.9096 -3.28615 -26.7809 -8.59916 -3.2119 0 0 88.1865 -18.3453 -18.9249 -1.924 0 0 68.3113 -11.8989 -18.9734 8.7379 -0.0029 0.0005 7.18144 -39.4751 21.3638 0 -46.6676 -7.10543e-15 -7.35134 69.7269 4.02305 0 -40.1476 0 6.45722 -25.0469 13.1943 -3.55271e-15 -8.8846 14.2294 0.0001 -1.59028e-15 3.18055e-15 -8.7379 0.0029 -0.0005 -23.2297 -23.4956 -14.083 0 -46.6676 0 -64.7618 69.6236 61.5417 0 -40.1476 0 -7.37913 -28.185 -12.574 -1.42109e-14 -8.8846 14.2294 3.18055e-15 -3.18055e-15 -1.59028e-15 
4.08875 80.5263 -110.3 4.35692 -0.512415 -42.7388 1.42109e-14 7.2397 0 3.68111 6.15243 2.37151 0 16.546 0 7.81865 14.2151 3.11312 0 34.2149 1.42109e-14 0.290077 27.4535 0.471587 7.10543e-15 6.2923 0 -20.3114 -27.7932 9.0993 4.0639 26.6115 -1.1234 -3.02249 -7.36931 -16.6315 14.1772 0 -1.42109e-14 -68.93 -15.0928 -33.0504 26.1234 0 0 -115.928 -8.1163 -87.814 27.7188 -1.42109e-14 7.10543e-15 -2.0875 -34.2458 -3.65015 2.2979 -0.4685 1.8313 37.184 70.9488 -65.3921 5.2953 -1.42109e-14 -7.10543e-15 -13.655 2.43915 4.23129 3.0181 -1.42109e-14 1.42109e-14 40.5751 -4.26212 10.4488 9.3793 0.2991 2.5924 -15.7189 8.26171 2.10858 4.3461 0 0 -27.9756 -1.11864 5.59658 2.1666 -7.10543e-15 0 -30.2284 -1.57777 5.42756 9.4769 0.8376 0.2947 -15.5574 6.19106 1.80129 4.772 -1.42109e-14 -1.42109e-14 -44.2331 -4.15795 10.4286 2.8722 0 0 -38.4625 -3.11872 10.6457 8.6586 1.0176 -1.7016 -12.8095 4.0576 0.0154257 4.5461 0 0 -68.2419 -4.98727 7.3547 2.506 0 -1.42109e-14 -26.1841 0.226347 12.1003 7.6901 0.6618 -3.9096 -1.69592 -16.7036 -0.578577 3.2119 7.10543e-15 0 -48.2122 -6.75384 15.0248 1.924 4.44089e-16 0 -25.7168 -1.92456 10.2066 -4.0677 26.6109 -1.1234 -7.63903 -5.96527 -9.25107 -14.1772 0 0 33.0204 33.4008 50.5384 -26.1234 -1.42109e-14 -1.42109e-14 30.597 -0.893914 111.496 -27.7188 0 0 -2.31636 -5.88729 -7.62706 -2.2979 -0.4684 1.8313 -92.2024 72.3374 115.748 -5.2953 0 0 20.8061 -0.164262 -7.80923 -3.0181 0 -3.55271e-15 7.4436 -1.87405 -23.1505 -9.3793 0.2991 2.5924 -0.483195 -1.40441 -4.462 -4.3461 7.10543e-15 0 11.3886 0.0663637 -2.10813 -2.1666 -3.55271e-15 2.84217e-14 35.2115 -1.89998 -5.61246 -9.4769 0.8376 0.2947 -5.74449 -0.4925 -10.345 -4.772 1.77636e-15 0 99.6664 -15.9161 -13.533 -2.8722 0 1.42109e-14 64.9769 -7.76868 -13.6635 -8.6586 1.0176 -1.7016 4.03543 -11.2401 -9.54023 -4.5461 0 1.42109e-14 113.305 -9.33455 -6.15041 -2.506 0 0 71.4335 -4.52061 -7.1353 -7.6901 0.6618 -3.9096 -3.28615 -26.7809 -8.59916 -3.2119 1.42109e-14 0 88.1865 -18.3453 -18.9249 -1.924 0 -1.42109e-14 68.3113 -11.8989 -18.9734 8.7379 -0.0029 0.0005 12.3976 -42.9716 22.5487 7.10543e-15 -46.6676 7.10543e-15 -7.71264 70.3768 5.18408 7.10543e-15 -40.1476 0 2.65792 -21.509 12.8542 0 -8.8846 14.2294 0.0001 7.95139e-16 3.18055e-15 -8.7379 0.0029 -0.0005 -26.4694 -13.7396 -11.6791 1.42109e-14 -46.6676 0 -46.5103 62.0709 45.1344 0 -40.1476 0 -6.06822 -23.0024 -8.8627 1.42109e-14 -8.8846 14.2294 -4.41391e-31 3.18055e-15 7.95139e-15 
3.68993 79.5615 -116.249 4.16514 -0.219404 -44.6761 0 7.2397 0 3.93798 6.0205 2.79284 -7.10543e-15 16.546 -2.84217e-14 7.73668 13.958 3.76291 -7.10543e-15 34.2149 0 0.16859 27.7307 0.77299 -1.42109e-14 6.2923 -2.84217e-14 -20.5437 -27.6506 9.57998 4.0639 26.6115 -1.1234 -2.6845 -7.74641 -15.1962 14.1772 0 1.42109e-14 -70.0616 -14.402 -32.3641 26.1234 7.10543e-15 0 -115.692 -8.03165 -87.7758 27.7188 0 -7.10543e-15 -1.81412 -34.1381 -3.20935 2.2979 -0.4685 1.8313 37.184 70.9488 -65.3921 5.2953 -1.42109e-14 0 -13.655 2.43915 4.23129 3.0181 0 -7.10543e-15 40.5751 -4.26212 10.4488 9.3793 0.2991 2.5924 -15.7189 8.26171 2.10858 4.3461 -1.42109e-14 1.42109e-14 -27.9756 -1.11864 5.59658 2.1666 0 0 -30.2284 -1.57777 5.42756 9.4769 0.8376 0.2947 -15.5574 6.19106 1.80129 4.772 0 0 -44.2331 -4.15795 10.4286 2.8722 0 0 -38.4625 -3.11872 10.6457 8.6586 1.0176 -1.7016 -12.8095 4.0576 0.0154257 4.5461 -1.42109e-14 0 -68.2419 -4.98727 7.3547 2.506 -3.55271e-15 1.42109e-14 -26.1841 0.226347 12.1003 7.6901 0.6618 -3.9096 -1.69592 -16.7036 -0.578577 3.2119 0 0 -48.2122 -6.75384 15.0248 1.924 2.66454e-15 0 -25.7168 -1.92456 10.2066 -4.0677 26.6109 -1.1234 -7.55419 -6.15692 -8.7662 -14.1772 0 1.42109e-14 32.6381 33.9587 50.8876 -26.1234 0 0 29.6657 -1.44596 111.373 -27.7188 -3.55271e-15 0 -2.29827 -7.0623 -8.03801 -2.2979 -0.4684 1.8313 -92.2024 72.3374 115.748 -5.2953 -2.84217e-14 0 20.8061 -0.164262 -7.80923 -3.0181 0 -3.55271e-15 7.4436 -1.87405 -23.1505 -9.3793 0.2991 2.5924 -0.483195 -1.40441 -4.462 -4.3461 -3.55271e-15 0 11.3886 0.0663637 -2.10813 -2.1666 0 0 35.2115 -1.89998 -5.61246 -9.4769 0.8376 0.2947 -5.74449 -0.4925 -10.345 -4.772 -1.77636e-15 -1.42109e-14 99.6664 -15.9161 -13.533 -2.8722 1.42109e-14 0 64.9769 -7.76868 -13.6635 -8.6586 1.0176 -1.7016 4.03543 -11.2401 -9.54023 -4.5461 0 0 113.305 -9.33455 -6.15041 -2.506 0 -1.42109e-14 71.4335 -4.52061 -7.1353 -7.6901 0.6618 -3.9096 -3.28615 -26.7809 -8.59916 -3.2119 1.42109e-14 -1.42109e-14 88.1865 -18.3453 -18.9249 -1.924 0 -1.42109e-14 68.3113 -11.8989 -18.9734 8.7379 -0.0029 0.0005 17.7959 -46.0334 23.864 0 -46.6676 0 -7.82663 70.4304 6.0048 0 -40.1476 0 -1.13612 -17.6467 12.6728 -3.55271e-15 -8.8846 14.2294 0.0001 -7.95139e-16 -3.18055e-15 -8.7379 0.0029 -0.0005 -29.6238 -5.10703 -9.2851 0 -46.6676 0 -33.8612 53.3529 34.4445 0 -40.1476 0 -4.7836 -18.151 -5.07851 1.42109e-14 -8.8846 14.2294 -3.18055e-15 3.18055e-15 -4.77083e-15 
